<mxfile host="app.diagrams.net" modified="2024-02-02T05:00:04.653Z" agent="Mozilla/5.0 (Windows NT 10.0; Win64; x64) AppleWebKit/537.36 (KHTML, like Gecko) Chrome/120.0.0.0 Safari/537.36 Edg/120.0.0.0" version="23.1.0" etag="CG8Gm3MQf5yumxurqGYt" type="device" pages="2">
  <diagram id="tZNAN_vQjnu6PV127qo7" name="Logical Diagram">
    <mxGraphModel dx="1791" dy="819" grid="1" gridSize="10" guides="1" tooltips="1" connect="1" arrows="1" fold="1" page="1" pageScale="1" pageWidth="850" pageHeight="1100" math="0" shadow="0">
      <root>
        <mxCell id="0" />
        <mxCell id="1" parent="0" />
        <mxCell id="KpZ-4JMoYoSyeBIqULKJ-2" value="Internet" style="ellipse;shape=cloud;whiteSpace=wrap;html=1;" vertex="1" parent="1">
          <mxGeometry x="40" y="450" width="120" height="80" as="geometry" />
        </mxCell>
        <mxCell id="KpZ-4JMoYoSyeBIqULKJ-4" value="" style="endArrow=classic;startArrow=classic;html=1;rounded=0;exitX=0.875;exitY=0.5;exitDx=0;exitDy=0;exitPerimeter=0;entryX=0;entryY=0.5;entryDx=0;entryDy=0;" edge="1" parent="1" source="KpZ-4JMoYoSyeBIqULKJ-2" target="KpZ-4JMoYoSyeBIqULKJ-11">
          <mxGeometry width="50" height="50" relative="1" as="geometry">
            <mxPoint x="350" y="430" as="sourcePoint" />
            <mxPoint x="280" y="490" as="targetPoint" />
          </mxGeometry>
        </mxCell>
        <mxCell id="KpZ-4JMoYoSyeBIqULKJ-5" value="" style="rounded=0;whiteSpace=wrap;html=1;dashed=1;" vertex="1" parent="1">
          <mxGeometry x="739" y="280" width="220" height="420" as="geometry" />
        </mxCell>
        <mxCell id="KpZ-4JMoYoSyeBIqULKJ-6" value="Private Subnet 2" style="text;html=1;strokeColor=none;fillColor=none;align=center;verticalAlign=middle;whiteSpace=wrap;rounded=0;" vertex="1" parent="1">
          <mxGeometry x="739" y="250" width="101" height="30" as="geometry" />
        </mxCell>
        <mxCell id="KpZ-4JMoYoSyeBIqULKJ-7" value="Customers" style="rounded=0;whiteSpace=wrap;html=1;" vertex="1" parent="1">
          <mxGeometry x="789" y="310" width="120" height="60" as="geometry" />
        </mxCell>
        <mxCell id="KpZ-4JMoYoSyeBIqULKJ-8" value="Inventory" style="rounded=0;whiteSpace=wrap;html=1;" vertex="1" parent="1">
          <mxGeometry x="789" y="410" width="120" height="60" as="geometry" />
        </mxCell>
        <mxCell id="KpZ-4JMoYoSyeBIqULKJ-9" value="Cart" style="rounded=0;whiteSpace=wrap;html=1;" vertex="1" parent="1">
          <mxGeometry x="789" y="500" width="120" height="60" as="geometry" />
        </mxCell>
        <mxCell id="KpZ-4JMoYoSyeBIqULKJ-10" value="Orders" style="rounded=0;whiteSpace=wrap;html=1;" vertex="1" parent="1">
          <mxGeometry x="789" y="590" width="120" height="60" as="geometry" />
        </mxCell>
        <mxCell id="KpZ-4JMoYoSyeBIqULKJ-11" value="" style="rounded=0;whiteSpace=wrap;html=1;dashed=1;" vertex="1" parent="1">
          <mxGeometry x="460" y="410" width="180" height="160" as="geometry" />
        </mxCell>
        <mxCell id="KpZ-4JMoYoSyeBIqULKJ-12" value="Subnet 1" style="text;html=1;strokeColor=none;fillColor=none;align=center;verticalAlign=middle;whiteSpace=wrap;rounded=0;" vertex="1" parent="1">
          <mxGeometry x="460" y="380" width="101" height="30" as="geometry" />
        </mxCell>
        <mxCell id="KpZ-4JMoYoSyeBIqULKJ-13" value="Scribble App" style="rounded=0;whiteSpace=wrap;html=1;" vertex="1" parent="1">
          <mxGeometry x="490" y="460" width="120" height="60" as="geometry" />
        </mxCell>
        <mxCell id="KpZ-4JMoYoSyeBIqULKJ-14" value="" style="endArrow=classic;startArrow=classic;html=1;rounded=0;exitX=1;exitY=0.5;exitDx=0;exitDy=0;" edge="1" parent="1" source="KpZ-4JMoYoSyeBIqULKJ-13" target="KpZ-4JMoYoSyeBIqULKJ-5">
          <mxGeometry width="50" height="50" relative="1" as="geometry">
            <mxPoint x="610" y="500" as="sourcePoint" />
            <mxPoint x="660" y="450" as="targetPoint" />
          </mxGeometry>
        </mxCell>
        <mxCell id="KpZ-4JMoYoSyeBIqULKJ-16" value="" style="sketch=0;pointerEvents=1;shadow=0;dashed=0;html=1;strokeColor=none;fillColor=#505050;labelPosition=center;verticalLabelPosition=bottom;verticalAlign=top;outlineConnect=0;align=center;shape=mxgraph.office.security.lock_protected;" vertex="1" parent="1">
          <mxGeometry x="472" y="420" width="8" height="10" as="geometry" />
        </mxCell>
        <mxCell id="KpZ-4JMoYoSyeBIqULKJ-17" value="" style="sketch=0;pointerEvents=1;shadow=0;dashed=0;html=1;strokeColor=none;fillColor=#505050;labelPosition=center;verticalLabelPosition=bottom;verticalAlign=top;outlineConnect=0;align=center;shape=mxgraph.office.security.lock_protected;" vertex="1" parent="1">
          <mxGeometry x="750" y="300" width="8" height="10" as="geometry" />
        </mxCell>
      </root>
    </mxGraphModel>
  </diagram>
  <diagram id="3gSljP28xLBvyaStXlK5" name="Wireframes">
    <mxGraphModel dx="2957" dy="964" grid="1" gridSize="10" guides="1" tooltips="1" connect="1" arrows="1" fold="1" page="1" pageScale="1" pageWidth="850" pageHeight="1100" math="0" shadow="0">
      <root>
        <mxCell id="0" />
        <mxCell id="1" parent="0" />
        <mxCell id="_6BomvD_w5MTak0C1Kc3-1" value="" style="rounded=0;whiteSpace=wrap;html=1;" vertex="1" parent="1">
          <mxGeometry x="80" y="80" width="400" height="350" as="geometry" />
        </mxCell>
        <mxCell id="_6BomvD_w5MTak0C1Kc3-2" value="UserID" style="rounded=0;whiteSpace=wrap;html=1;" vertex="1" parent="1">
          <mxGeometry x="220" y="190" width="100" height="30" as="geometry" />
        </mxCell>
        <mxCell id="_6BomvD_w5MTak0C1Kc3-3" value="Password" style="rounded=0;whiteSpace=wrap;html=1;" vertex="1" parent="1">
          <mxGeometry x="220" y="250" width="100" height="30" as="geometry" />
        </mxCell>
        <mxCell id="_6BomvD_w5MTak0C1Kc3-4" value="Login" style="rounded=1;whiteSpace=wrap;html=1;" vertex="1" parent="1">
          <mxGeometry x="230" y="320" width="80" height="30" as="geometry" />
        </mxCell>
        <mxCell id="_6BomvD_w5MTak0C1Kc3-5" value="" style="rounded=0;whiteSpace=wrap;html=1;" vertex="1" parent="1">
          <mxGeometry x="600" y="80" width="360" height="350" as="geometry" />
        </mxCell>
        <mxCell id="_6BomvD_w5MTak0C1Kc3-6" value="" style="endArrow=classic;html=1;rounded=0;exitX=1;exitY=0.5;exitDx=0;exitDy=0;entryX=0;entryY=0.5;entryDx=0;entryDy=0;" edge="1" parent="1" source="_6BomvD_w5MTak0C1Kc3-1" target="_6BomvD_w5MTak0C1Kc3-5">
          <mxGeometry width="50" height="50" relative="1" as="geometry">
            <mxPoint x="400" y="190" as="sourcePoint" />
            <mxPoint x="450" y="140" as="targetPoint" />
          </mxGeometry>
        </mxCell>
        <mxCell id="_6BomvD_w5MTak0C1Kc3-7" value="Login" style="text;html=1;strokeColor=none;fillColor=none;align=center;verticalAlign=middle;whiteSpace=wrap;rounded=0;" vertex="1" parent="1">
          <mxGeometry x="80" y="50" width="60" height="30" as="geometry" />
        </mxCell>
        <mxCell id="_6BomvD_w5MTak0C1Kc3-8" value="Retail User" style="shape=umlActor;verticalLabelPosition=bottom;verticalAlign=top;html=1;outlineConnect=0;" vertex="1" parent="1">
          <mxGeometry x="-50" y="221" width="30" height="60" as="geometry" />
        </mxCell>
        <mxCell id="_6BomvD_w5MTak0C1Kc3-9" value="" style="endArrow=classic;html=1;rounded=0;exitX=0.5;exitY=0.5;exitDx=0;exitDy=0;exitPerimeter=0;" edge="1" parent="1" source="_6BomvD_w5MTak0C1Kc3-8" target="_6BomvD_w5MTak0C1Kc3-1">
          <mxGeometry width="50" height="50" relative="1" as="geometry">
            <mxPoint x="400" y="190" as="sourcePoint" />
            <mxPoint x="450" y="140" as="targetPoint" />
          </mxGeometry>
        </mxCell>
        <mxCell id="_6BomvD_w5MTak0C1Kc3-10" value="Product" style="whiteSpace=wrap;html=1;aspect=fixed;verticalAlign=middle;" vertex="1" parent="1">
          <mxGeometry x="670" y="130" width="80" height="80" as="geometry" />
        </mxCell>
        <mxCell id="_6BomvD_w5MTak0C1Kc3-12" value="Product" style="whiteSpace=wrap;html=1;aspect=fixed;verticalAlign=middle;" vertex="1" parent="1">
          <mxGeometry x="790" y="130" width="80" height="80" as="geometry" />
        </mxCell>
        <mxCell id="_6BomvD_w5MTak0C1Kc3-13" value="Product" style="whiteSpace=wrap;html=1;aspect=fixed;verticalAlign=middle;" vertex="1" parent="1">
          <mxGeometry x="670" y="240" width="80" height="80" as="geometry" />
        </mxCell>
        <mxCell id="_6BomvD_w5MTak0C1Kc3-14" value="Product" style="whiteSpace=wrap;html=1;aspect=fixed;verticalAlign=middle;" vertex="1" parent="1">
          <mxGeometry x="790" y="240" width="80" height="80" as="geometry" />
        </mxCell>
        <mxCell id="_6BomvD_w5MTak0C1Kc3-15" value="" style="shape=image;html=1;verticalAlign=top;verticalLabelPosition=bottom;labelBackgroundColor=#ffffff;imageAspect=0;aspect=fixed;image=https://cdn4.iconfinder.com/data/icons/evil-icons-user-interface/64/plus-128.png" vertex="1" parent="1">
          <mxGeometry x="670" y="130" width="20" height="20" as="geometry" />
        </mxCell>
        <mxCell id="_6BomvD_w5MTak0C1Kc3-16" value="" style="shape=image;html=1;verticalAlign=top;verticalLabelPosition=bottom;labelBackgroundColor=#ffffff;imageAspect=0;aspect=fixed;image=https://cdn4.iconfinder.com/data/icons/evil-icons-user-interface/64/plus-128.png" vertex="1" parent="1">
          <mxGeometry x="790" y="130" width="20" height="20" as="geometry" />
        </mxCell>
        <mxCell id="_6BomvD_w5MTak0C1Kc3-17" value="" style="shape=image;html=1;verticalAlign=top;verticalLabelPosition=bottom;labelBackgroundColor=#ffffff;imageAspect=0;aspect=fixed;image=https://cdn4.iconfinder.com/data/icons/evil-icons-user-interface/64/plus-128.png" vertex="1" parent="1">
          <mxGeometry x="670" y="241" width="20" height="20" as="geometry" />
        </mxCell>
        <mxCell id="_6BomvD_w5MTak0C1Kc3-18" value="" style="shape=image;html=1;verticalAlign=top;verticalLabelPosition=bottom;labelBackgroundColor=#ffffff;imageAspect=0;aspect=fixed;image=https://cdn4.iconfinder.com/data/icons/evil-icons-user-interface/64/plus-128.png" vertex="1" parent="1">
          <mxGeometry x="790" y="240" width="20" height="20" as="geometry" />
        </mxCell>
        <mxCell id="_6BomvD_w5MTak0C1Kc3-19" value="Inventory" style="text;html=1;strokeColor=none;fillColor=none;align=center;verticalAlign=middle;whiteSpace=wrap;rounded=0;" vertex="1" parent="1">
          <mxGeometry x="600" y="50" width="60" height="30" as="geometry" />
        </mxCell>
        <mxCell id="_6BomvD_w5MTak0C1Kc3-20" value="" style="rounded=0;whiteSpace=wrap;html=1;" vertex="1" parent="1">
          <mxGeometry x="1090" y="80" width="360" height="350" as="geometry" />
        </mxCell>
        <mxCell id="_6BomvD_w5MTak0C1Kc3-21" value="" style="endArrow=classic;html=1;rounded=0;exitX=1;exitY=0.5;exitDx=0;exitDy=0;entryX=0;entryY=0.5;entryDx=0;entryDy=0;" edge="1" parent="1" target="_6BomvD_w5MTak0C1Kc3-20">
          <mxGeometry width="50" height="50" relative="1" as="geometry">
            <mxPoint x="960" y="254.5" as="sourcePoint" />
            <mxPoint x="1080" y="254.5" as="targetPoint" />
          </mxGeometry>
        </mxCell>
        <mxCell id="_6BomvD_w5MTak0C1Kc3-22" value="Cart" style="text;html=1;strokeColor=none;fillColor=none;align=center;verticalAlign=middle;whiteSpace=wrap;rounded=0;" vertex="1" parent="1">
          <mxGeometry x="1090" y="50" width="60" height="30" as="geometry" />
        </mxCell>
        <mxCell id="_6BomvD_w5MTak0C1Kc3-23" value="My Cart" style="swimlane;fontStyle=0;childLayout=stackLayout;horizontal=1;startSize=26;fillColor=none;horizontalStack=0;resizeParent=1;resizeParentMax=0;resizeLast=0;collapsible=1;marginBottom=0;html=1;" vertex="1" parent="1">
          <mxGeometry x="1140" y="120" width="260" height="104" as="geometry" />
        </mxCell>
        <mxCell id="_6BomvD_w5MTak0C1Kc3-24" value="Item 1" style="text;strokeColor=none;fillColor=none;align=left;verticalAlign=top;spacingLeft=4;spacingRight=4;overflow=hidden;rotatable=0;points=[[0,0.5],[1,0.5]];portConstraint=eastwest;whiteSpace=wrap;html=1;" vertex="1" parent="_6BomvD_w5MTak0C1Kc3-23">
          <mxGeometry y="26" width="260" height="26" as="geometry" />
        </mxCell>
        <mxCell id="_6BomvD_w5MTak0C1Kc3-25" value="Item 2" style="text;strokeColor=none;fillColor=none;align=left;verticalAlign=top;spacingLeft=4;spacingRight=4;overflow=hidden;rotatable=0;points=[[0,0.5],[1,0.5]];portConstraint=eastwest;whiteSpace=wrap;html=1;" vertex="1" parent="_6BomvD_w5MTak0C1Kc3-23">
          <mxGeometry y="52" width="260" height="26" as="geometry" />
        </mxCell>
        <mxCell id="_6BomvD_w5MTak0C1Kc3-26" value="Item 3" style="text;strokeColor=none;fillColor=none;align=left;verticalAlign=top;spacingLeft=4;spacingRight=4;overflow=hidden;rotatable=0;points=[[0,0.5],[1,0.5]];portConstraint=eastwest;whiteSpace=wrap;html=1;" vertex="1" parent="_6BomvD_w5MTak0C1Kc3-23">
          <mxGeometry y="78" width="260" height="26" as="geometry" />
        </mxCell>
        <mxCell id="_6BomvD_w5MTak0C1Kc3-28" value="Order" style="rounded=1;whiteSpace=wrap;html=1;" vertex="1" parent="1">
          <mxGeometry x="1360" y="320" width="80" height="30" as="geometry" />
        </mxCell>
        <mxCell id="_6BomvD_w5MTak0C1Kc3-29" value="" style="rounded=0;whiteSpace=wrap;html=1;" vertex="1" parent="1">
          <mxGeometry x="1580" y="80" width="360" height="350" as="geometry" />
        </mxCell>
        <mxCell id="_6BomvD_w5MTak0C1Kc3-30" value="Order Confirmation" style="text;html=1;strokeColor=none;fillColor=none;align=center;verticalAlign=middle;whiteSpace=wrap;rounded=0;" vertex="1" parent="1">
          <mxGeometry x="1580" y="50" width="110" height="30" as="geometry" />
        </mxCell>
        <mxCell id="_6BomvD_w5MTak0C1Kc3-31" value="" style="endArrow=classic;html=1;rounded=0;entryX=0;entryY=0.5;entryDx=0;entryDy=0;" edge="1" parent="1">
          <mxGeometry width="50" height="50" relative="1" as="geometry">
            <mxPoint x="1450" y="255" as="sourcePoint" />
            <mxPoint x="1580" y="255" as="targetPoint" />
          </mxGeometry>
        </mxCell>
        <mxCell id="_6BomvD_w5MTak0C1Kc3-32" value="Congratulations, your order has been placed successfully" style="text;html=1;strokeColor=none;fillColor=none;align=left;verticalAlign=middle;whiteSpace=wrap;rounded=0;" vertex="1" parent="1">
          <mxGeometry x="1610" y="120" width="250" height="30" as="geometry" />
        </mxCell>
        <mxCell id="_6BomvD_w5MTak0C1Kc3-33" value="" style="endArrow=classic;html=1;rounded=0;entryX=0;entryY=0.5;entryDx=0;entryDy=0;" edge="1" parent="1">
          <mxGeometry width="50" height="50" relative="1" as="geometry">
            <mxPoint x="1940" y="254.5" as="sourcePoint" />
            <mxPoint x="2070" y="254.5" as="targetPoint" />
          </mxGeometry>
        </mxCell>
        <mxCell id="_6BomvD_w5MTak0C1Kc3-34" value="" style="rounded=0;whiteSpace=wrap;html=1;" vertex="1" parent="1">
          <mxGeometry x="2070" y="80" width="360" height="350" as="geometry" />
        </mxCell>
        <mxCell id="_6BomvD_w5MTak0C1Kc3-35" value="Order Tracking" style="text;html=1;strokeColor=none;fillColor=none;align=center;verticalAlign=middle;whiteSpace=wrap;rounded=0;" vertex="1" parent="1">
          <mxGeometry x="2070" y="50" width="110" height="30" as="geometry" />
        </mxCell>
        <mxCell id="_6BomvD_w5MTak0C1Kc3-49" value="Order 1" style="rounded=0;whiteSpace=wrap;html=1;align=left;" vertex="1" parent="1">
          <mxGeometry x="2100" y="130" width="300" height="40" as="geometry" />
        </mxCell>
        <mxCell id="_6BomvD_w5MTak0C1Kc3-50" value="Order 2" style="rounded=0;whiteSpace=wrap;html=1;align=left;" vertex="1" parent="1">
          <mxGeometry x="2100" y="170" width="300" height="40" as="geometry" />
        </mxCell>
        <mxCell id="_6BomvD_w5MTak0C1Kc3-51" value="Order 3" style="rounded=0;whiteSpace=wrap;html=1;align=left;" vertex="1" parent="1">
          <mxGeometry x="2100" y="210" width="300" height="40" as="geometry" />
        </mxCell>
        <mxCell id="_6BomvD_w5MTak0C1Kc3-52" value="Track My Orders" style="rounded=1;whiteSpace=wrap;html=1;" vertex="1" parent="1">
          <mxGeometry x="1820" y="320" width="100" height="30" as="geometry" />
        </mxCell>
        <mxCell id="_6BomvD_w5MTak0C1Kc3-53" value="My Orders" style="text;html=1;strokeColor=none;fillColor=none;align=left;verticalAlign=middle;whiteSpace=wrap;rounded=0;" vertex="1" parent="1">
          <mxGeometry x="2100" y="100" width="110" height="30" as="geometry" />
        </mxCell>
        <mxCell id="_6BomvD_w5MTak0C1Kc3-54" value="Business User" style="shape=umlActor;verticalLabelPosition=bottom;verticalAlign=top;html=1;outlineConnect=0;" vertex="1" parent="1">
          <mxGeometry x="-50" y="630" width="30" height="60" as="geometry" />
        </mxCell>
        <mxCell id="_6BomvD_w5MTak0C1Kc3-57" value="" style="endArrow=classic;html=1;rounded=0;exitX=0.5;exitY=0.5;exitDx=0;exitDy=0;exitPerimeter=0;entryX=0.003;entryY=0.483;entryDx=0;entryDy=0;entryPerimeter=0;" edge="1" parent="1" source="_6BomvD_w5MTak0C1Kc3-54" target="_6BomvD_w5MTak0C1Kc3-1">
          <mxGeometry width="50" height="50" relative="1" as="geometry">
            <mxPoint x="380" y="420" as="sourcePoint" />
            <mxPoint x="430" y="370" as="targetPoint" />
          </mxGeometry>
        </mxCell>
        <mxCell id="_6BomvD_w5MTak0C1Kc3-58" value="" style="rounded=0;whiteSpace=wrap;html=1;" vertex="1" parent="1">
          <mxGeometry x="600" y="520" width="360" height="350" as="geometry" />
        </mxCell>
        <mxCell id="_6BomvD_w5MTak0C1Kc3-59" value="Order 1 | Customer 1" style="rounded=0;whiteSpace=wrap;html=1;align=left;" vertex="1" parent="1">
          <mxGeometry x="630" y="570" width="300" height="40" as="geometry" />
        </mxCell>
        <mxCell id="_6BomvD_w5MTak0C1Kc3-60" value="Order 2 | Customer 2" style="rounded=0;whiteSpace=wrap;html=1;align=left;" vertex="1" parent="1">
          <mxGeometry x="630" y="610" width="300" height="40" as="geometry" />
        </mxCell>
        <mxCell id="_6BomvD_w5MTak0C1Kc3-61" value="Order 3 | Customer 1" style="rounded=0;whiteSpace=wrap;html=1;align=left;" vertex="1" parent="1">
          <mxGeometry x="630" y="650" width="300" height="40" as="geometry" />
        </mxCell>
        <mxCell id="_6BomvD_w5MTak0C1Kc3-62" value="Track Orders" style="text;html=1;strokeColor=none;fillColor=none;align=left;verticalAlign=middle;whiteSpace=wrap;rounded=0;" vertex="1" parent="1">
          <mxGeometry x="630" y="540" width="110" height="30" as="geometry" />
        </mxCell>
        <mxCell id="_6BomvD_w5MTak0C1Kc3-63" value="" style="endArrow=classic;html=1;rounded=0;exitX=1;exitY=0.5;exitDx=0;exitDy=0;entryX=0;entryY=0.5;entryDx=0;entryDy=0;" edge="1" parent="1" source="_6BomvD_w5MTak0C1Kc3-1" target="_6BomvD_w5MTak0C1Kc3-58">
          <mxGeometry width="50" height="50" relative="1" as="geometry">
            <mxPoint x="500" y="490" as="sourcePoint" />
            <mxPoint x="550" y="440" as="targetPoint" />
          </mxGeometry>
        </mxCell>
        <mxCell id="_6BomvD_w5MTak0C1Kc3-64" value="Order Tracking" style="text;html=1;strokeColor=none;fillColor=none;align=center;verticalAlign=middle;whiteSpace=wrap;rounded=0;" vertex="1" parent="1">
          <mxGeometry x="600" y="490" width="110" height="30" as="geometry" />
        </mxCell>
        <mxCell id="_6BomvD_w5MTak0C1Kc3-65" value="" style="rounded=0;whiteSpace=wrap;html=1;" vertex="1" parent="1">
          <mxGeometry x="1080" y="520" width="360" height="350" as="geometry" />
        </mxCell>
        <mxCell id="_6BomvD_w5MTak0C1Kc3-66" value="Customer 1" style="rounded=0;whiteSpace=wrap;html=1;align=left;" vertex="1" parent="1">
          <mxGeometry x="1110" y="570" width="300" height="40" as="geometry" />
        </mxCell>
        <mxCell id="_6BomvD_w5MTak0C1Kc3-67" value="Customer 2" style="rounded=0;whiteSpace=wrap;html=1;align=left;" vertex="1" parent="1">
          <mxGeometry x="1110" y="610" width="300" height="40" as="geometry" />
        </mxCell>
        <mxCell id="_6BomvD_w5MTak0C1Kc3-68" value="Customer 1" style="rounded=0;whiteSpace=wrap;html=1;align=left;" vertex="1" parent="1">
          <mxGeometry x="1110" y="650" width="300" height="40" as="geometry" />
        </mxCell>
        <mxCell id="_6BomvD_w5MTak0C1Kc3-69" value="Customers" style="text;html=1;strokeColor=none;fillColor=none;align=left;verticalAlign=middle;whiteSpace=wrap;rounded=0;" vertex="1" parent="1">
          <mxGeometry x="1110" y="540" width="110" height="30" as="geometry" />
        </mxCell>
        <mxCell id="_6BomvD_w5MTak0C1Kc3-70" value="Manage Customers" style="text;html=1;strokeColor=none;fillColor=none;align=center;verticalAlign=middle;whiteSpace=wrap;rounded=0;" vertex="1" parent="1">
          <mxGeometry x="1080" y="490" width="110" height="30" as="geometry" />
        </mxCell>
        <mxCell id="_6BomvD_w5MTak0C1Kc3-71" value="" style="endArrow=classic;html=1;rounded=0;exitX=1;exitY=0.5;exitDx=0;exitDy=0;" edge="1" parent="1" source="_6BomvD_w5MTak0C1Kc3-58" target="_6BomvD_w5MTak0C1Kc3-65">
          <mxGeometry width="50" height="50" relative="1" as="geometry">
            <mxPoint x="490" y="265" as="sourcePoint" />
            <mxPoint x="610" y="705" as="targetPoint" />
          </mxGeometry>
        </mxCell>
      </root>
    </mxGraphModel>
  </diagram>
</mxfile>
